<svg width="100.000000" height="23.000000" viewBox="0 0 100 23" fill="none" xmlns="http://www.w3.org/2000/svg" xmlns:xlink="http://www.w3.org/1999/xlink">
	<desc>
			Created with Pixso.
	</desc>
	<defs>
		<clipPath id="clip0_5">
			<rect id="Logo" width="100.000000" height="23.000000" fill="white" fill-opacity="0"/>
		</clipPath>
	</defs>
	<rect id="Logo" width="100.000000" height="23.000000" fill="#FFFFFF" fill-opacity="0"/>
	<g clip-path="url(#clip0_5)">
		<rect id="Rectangle Copy 21" x="61.000000" rx="3.000000" width="39.000000" height="23.000000" fill="#4A90E2" fill-opacity="1.000000"/>
		<rect id="Rectangle Copy 21" x="61.000000" rx="3.000000" width="39.000000" height="23.000000" stroke="#E5E5E5" stroke-opacity="0" stroke-width="0.000000"/>
		<path id="Premium" d="M2.709 13.166L2.709 16.918L1.358 16.918L1.358 6.887L4.319 6.887C4.95367 6.887 5.50433 6.96167 5.971 7.111C6.44233 7.25567 6.832 7.46333 7.14 7.734C7.448 8.00467 7.67667 8.33133 7.826 8.714C7.98 9.09667 8.057 9.52367 8.057 9.995C8.057 10.4617 7.97533 10.8887 7.812 11.276C7.64867 11.6633 7.40833 11.997 7.091 12.277C6.77833 12.557 6.38867 12.7763 5.922 12.935C5.45533 13.089 4.921 13.166 4.319 13.166L2.709 13.166ZM2.709 12.088L4.319 12.088C4.70633 12.088 5.047 12.0367 5.341 11.934C5.63967 11.8313 5.88933 11.689 6.09 11.507C6.29067 11.3203 6.44233 11.0987 6.545 10.842C6.64767 10.5853 6.699 10.303 6.699 9.995C6.699 9.35567 6.50067 8.85633 6.104 8.497C5.712 8.13767 5.117 7.958 4.319 7.958L2.709 7.958L2.709 12.088ZM9.58059 16.918L9.58059 9.827L10.2946 9.827C10.4299 9.827 10.5233 9.85267 10.5746 9.904C10.6259 9.95533 10.6609 10.044 10.6796 10.17L10.7636 11.276C11.0063 10.7813 11.3049 10.3963 11.6596 10.121C12.0189 9.841 12.4389 9.701 12.9196 9.701C13.1156 9.701 13.2929 9.72433 13.4516 9.771C13.6103 9.813 13.7573 9.87367 13.8926 9.953L13.7316 10.884C13.6989 11.0007 13.6266 11.059 13.5146 11.059C13.4493 11.059 13.3489 11.038 13.2136 10.996C13.0783 10.9493 12.8893 10.926 12.6466 10.926C12.2126 10.926 11.8486 11.052 11.5546 11.304C11.2653 11.556 11.0226 11.9223 10.8266 12.403L10.8266 16.918L9.58059 16.918ZM18.0341 9.715C18.4587 9.715 18.8507 9.78733 19.2101 9.932C19.5694 10.072 19.8797 10.2773 20.1411 10.548C20.4024 10.814 20.6054 11.1453 20.7501 11.542C20.8994 11.934 20.9741 12.382 20.9741 12.886C20.9741 13.082 20.9531 13.2127 20.9111 13.278C20.8691 13.3433 20.7897 13.376 20.6731 13.376L15.9551 13.376C15.9644 13.824 16.0251 14.2137 16.1371 14.545C16.2491 14.8763 16.4031 15.154 16.5991 15.378C16.7951 15.5973 17.0284 15.763 17.2991 15.875C17.5697 15.9823 17.8731 16.036 18.2091 16.036C18.5217 16.036 18.7901 16.001 19.0141 15.931C19.2427 15.8563 19.4387 15.777 19.6021 15.693C19.7654 15.609 19.9007 15.532 20.0081 15.462C20.1201 15.3873 20.2157 15.35 20.2951 15.35C20.3977 15.35 20.4771 15.3897 20.5331 15.469L20.8831 15.924C20.7291 16.1107 20.5447 16.274 20.3301 16.414C20.1154 16.5493 19.8844 16.6613 19.6371 16.75C19.3944 16.8387 19.1424 16.904 18.8811 16.946C18.6197 16.9927 18.3607 17.016 18.1041 17.016C17.6141 17.016 17.1614 16.9343 16.7461 16.771C16.3354 16.603 15.9784 16.3603 15.6751 16.043C15.3764 15.721 15.1431 15.3243 14.9751 14.853C14.8071 14.3817 14.7231 13.8403 14.7231 13.229C14.7231 12.7343 14.7977 12.2723 14.9471 11.843C15.1011 11.4137 15.3204 11.0427 15.6051 10.73C15.8897 10.4127 16.2374 10.1653 16.6481 9.988C17.0587 9.806 17.5207 9.715 18.0341 9.715ZM18.0621 10.632C17.4601 10.632 16.9864 10.807 16.6411 11.157C16.2957 11.5023 16.0811 11.983 15.9971 12.599L19.8541 12.599C19.8541 12.3097 19.8144 12.046 19.7351 11.808C19.6557 11.5653 19.5391 11.3577 19.3851 11.185C19.2311 11.0077 19.0421 10.8723 18.8181 10.779C18.5987 10.681 18.3467 10.632 18.0621 10.632ZM22.5689 16.918L22.5689 9.827L23.3109 9.827C23.4882 9.827 23.6002 9.91333 23.6469 10.086L23.7379 10.814C23.9992 10.492 24.2909 10.2283 24.6129 10.023C24.9395 9.81767 25.3175 9.715 25.7469 9.715C26.2275 9.715 26.6149 9.848 26.9089 10.114C27.2075 10.38 27.4222 10.7393 27.5529 11.192C27.6509 10.9353 27.7792 10.7137 27.9379 10.527C28.1012 10.3403 28.2832 10.1863 28.4839 10.065C28.6845 9.94367 28.8969 9.855 29.1209 9.799C29.3495 9.743 29.5805 9.715 29.8139 9.715C30.1872 9.715 30.5185 9.77567 30.8079 9.897C31.1019 10.0137 31.3492 10.1863 31.5499 10.415C31.7552 10.6437 31.9115 10.926 32.0189 11.262C32.1262 11.5933 32.1799 11.9737 32.1799 12.403L32.1799 16.918L30.9339 16.918L30.9339 12.403C30.9339 11.8477 30.8125 11.4277 30.5699 11.143C30.3272 10.8537 29.9749 10.709 29.5129 10.709C29.3075 10.709 29.1115 10.7463 28.9249 10.821C28.7429 10.891 28.5819 10.996 28.4419 11.136C28.3019 11.276 28.1899 11.4533 28.1059 11.668C28.0265 11.878 27.9869 12.123 27.9869 12.403L27.9869 16.918L26.7409 16.918L26.7409 12.403C26.7409 11.8337 26.6265 11.409 26.3979 11.129C26.1692 10.849 25.8355 10.709 25.3969 10.709C25.0889 10.709 24.8019 10.793 24.5359 10.961C24.2745 11.1243 24.0342 11.3483 23.8149 11.633L23.8149 16.918L22.5689 16.918ZM35.4529 9.827L35.4529 16.918L34.2069 16.918L34.2069 9.827L35.4529 9.827ZM35.7329 7.601C35.7329 7.72233 35.7073 7.83667 35.6559 7.944C35.6093 8.04667 35.5439 8.14 35.4599 8.224C35.3806 8.30333 35.2873 8.36633 35.1799 8.413C35.0726 8.45967 34.9583 8.483 34.8369 8.483C34.7156 8.483 34.6013 8.45967 34.4939 8.413C34.3913 8.36633 34.2979 8.30333 34.2139 8.224C34.1346 8.14 34.0716 8.04667 34.0249 7.944C33.9783 7.83667 33.9549 7.72233 33.9549 7.601C33.9549 7.47967 33.9783 7.36533 34.0249 7.258C34.0716 7.146 34.1346 7.05033 34.2139 6.971C34.2979 6.887 34.3913 6.82167 34.4939 6.775C34.6013 6.72833 34.7156 6.705 34.8369 6.705C34.9583 6.705 35.0726 6.72833 35.1799 6.775C35.2873 6.82167 35.3806 6.887 35.4599 6.971C35.5439 7.05033 35.6093 7.146 35.6559 7.258C35.7073 7.36533 35.7329 7.47967 35.7329 7.601ZM38.727 9.827L38.727 14.349C38.727 14.8857 38.8506 15.301 39.098 15.595C39.3453 15.889 39.7186 16.036 40.218 16.036C40.582 16.036 40.925 15.9497 41.247 15.777C41.569 15.6043 41.8653 15.364 42.136 15.056L42.136 9.827L43.382 9.827L43.382 16.918L42.64 16.918C42.4626 16.918 42.3506 16.8317 42.304 16.659L42.206 15.896C41.898 16.2367 41.5526 16.512 41.17 16.722C40.7873 16.9273 40.3486 17.03 39.854 17.03C39.4666 17.03 39.1236 16.967 38.825 16.841C38.531 16.7103 38.2836 16.5283 38.083 16.295C37.8823 16.0617 37.7306 15.7793 37.628 15.448C37.53 15.1167 37.481 14.7503 37.481 14.349L37.481 9.827L38.727 9.827ZM45.4282 16.918L45.4282 9.827L46.1702 9.827C46.3476 9.827 46.4596 9.91333 46.5062 10.086L46.5973 10.814C46.8586 10.492 47.1502 10.2283 47.4723 10.023C47.7989 9.81767 48.1769 9.715 48.6063 9.715C49.0869 9.715 49.4743 9.848 49.7682 10.114C50.0669 10.38 50.2816 10.7393 50.4123 11.192C50.5103 10.9353 50.6386 10.7137 50.7972 10.527C50.9606 10.3403 51.1426 10.1863 51.3433 10.065C51.5439 9.94367 51.7562 9.855 51.9803 9.799C52.2089 9.743 52.4399 9.715 52.6733 9.715C53.0466 9.715 53.3779 9.77567 53.6673 9.897C53.9613 10.0137 54.2086 10.1863 54.4092 10.415C54.6146 10.6437 54.7709 10.926 54.8783 11.262C54.9856 11.5933 55.0392 11.9737 55.0392 12.403L55.0392 16.918L53.7933 16.918L53.7933 12.403C53.7933 11.8477 53.6719 11.4277 53.4293 11.143C53.1866 10.8537 52.8343 10.709 52.3722 10.709C52.1669 10.709 51.9709 10.7463 51.7842 10.821C51.6022 10.891 51.4412 10.996 51.3013 11.136C51.1613 11.276 51.0493 11.4533 50.9652 11.668C50.8859 11.878 50.8462 12.123 50.8462 12.403L50.8462 16.918L49.6003 16.918L49.6003 12.403C49.6003 11.8337 49.4859 11.409 49.2573 11.129C49.0286 10.849 48.6949 10.709 48.2562 10.709C47.9482 10.709 47.6613 10.793 47.3952 10.961C47.1339 11.1243 46.8936 11.3483 46.6743 11.633L46.6743 16.918L45.4282 16.918Z" fill="#FFFFFF" fill-opacity="1.000000" fill-rule="evenodd"/>
		<path id="CAR" d="M74.288 14.846C74.3627 14.846 74.4303 14.8763 74.491 14.937L75.023 15.518C74.6123 15.994 74.113 16.365 73.525 16.631C72.9417 16.897 72.237 17.03 71.411 17.03C70.6877 17.03 70.032 16.9063 69.444 16.659C68.856 16.407 68.3543 16.057 67.939 15.609C67.5237 15.1563 67.2017 14.615 66.973 13.985C66.7443 13.355 66.63 12.662 66.63 11.906C66.63 11.15 66.7513 10.457 66.994 9.827C67.2413 9.197 67.5867 8.65567 68.03 8.203C68.4733 7.75033 69.003 7.40033 69.619 7.153C70.2397 6.901 70.9233 6.775 71.67 6.775C72.4073 6.775 73.042 6.88933 73.574 7.118C74.1107 7.34667 74.5867 7.657 75.002 8.049L74.561 8.672C74.5283 8.71867 74.491 8.75833 74.449 8.791C74.407 8.819 74.3463 8.833 74.267 8.833C74.2063 8.833 74.141 8.812 74.071 8.77C74.0057 8.72333 73.9263 8.66733 73.833 8.602C73.7397 8.53667 73.63 8.46667 73.504 8.392C73.378 8.31733 73.2287 8.24733 73.056 8.182C72.8833 8.11667 72.6827 8.063 72.454 8.021C72.2253 7.97433 71.9617 7.951 71.663 7.951C71.1263 7.951 70.634 8.04433 70.186 8.231C69.7427 8.413 69.36 8.67433 69.038 9.015C68.716 9.35567 68.464 9.771 68.282 10.261C68.1047 10.751 68.016 11.2993 68.016 11.906C68.016 12.5313 68.1047 13.089 68.282 13.579C68.464 14.069 68.709 14.4843 69.017 14.825C69.3297 15.161 69.6983 15.4177 70.123 15.595C70.5477 15.7723 71.005 15.861 71.495 15.861C71.7937 15.861 72.062 15.8447 72.3 15.812C72.538 15.7747 72.7573 15.7187 72.958 15.644C73.1633 15.5693 73.3523 15.476 73.525 15.364C73.7023 15.2473 73.8797 15.1097 74.057 14.951C74.1363 14.881 74.2133 14.846 74.288 14.846ZM85.055 16.918L84.005 16.918C83.8837 16.918 83.7857 16.8877 83.711 16.827C83.6363 16.7663 83.5803 16.6893 83.543 16.596L82.605 14.174L78.104 14.174L77.166 16.596C77.1333 16.68 77.0773 16.7547 76.998 16.82C76.9187 16.8853 76.8206 16.918 76.704 16.918L75.654 16.918L79.665 6.887L81.044 6.887L85.055 16.918ZM78.482 13.194L82.227 13.194L80.652 9.113C80.5493 8.861 80.449 8.546 80.351 8.168C80.2997 8.35933 80.2483 8.53667 80.197 8.7C80.1503 8.85867 80.1037 8.99867 80.057 9.12L78.482 13.194ZM87.8086 12.732L87.8086 16.918L86.4576 16.918L86.4576 6.887L89.2926 6.887C89.9273 6.887 90.4756 6.95233 90.9376 7.083C91.3996 7.209 91.7799 7.39333 92.0786 7.636C92.3819 7.87867 92.6059 8.17267 92.7506 8.518C92.8953 8.85867 92.9676 9.24133 92.9676 9.666C92.9676 10.0207 92.9116 10.352 92.7996 10.66C92.6876 10.968 92.5243 11.2457 92.3096 11.493C92.0996 11.7357 91.8406 11.9433 91.5326 12.116C91.2293 12.2887 90.8839 12.4193 90.4966 12.508C90.6646 12.606 90.8139 12.7483 90.9446 12.935L93.8706 16.918L92.6666 16.918C92.4193 16.918 92.2373 16.8223 92.1206 16.631L89.5166 13.047C89.4373 12.935 89.3509 12.8557 89.2576 12.809C89.1643 12.7577 89.0243 12.732 88.8376 12.732L87.8086 12.732ZM87.8086 11.745L89.2296 11.745C89.6263 11.745 89.9739 11.6983 90.2726 11.605C90.5759 11.507 90.8279 11.3717 91.0286 11.199C91.2339 11.0217 91.3879 10.8117 91.4906 10.569C91.5933 10.3263 91.6446 10.058 91.6446 9.764C91.6446 9.16667 91.4463 8.71633 91.0496 8.413C90.6576 8.10967 90.0719 7.958 89.2926 7.958L87.8086 7.958L87.8086 11.745Z" fill="#FFFFFF" fill-opacity="1.000000" fill-rule="evenodd"/>
	</g>
</svg>
