<svg width="16.000000" height="16.000000" viewBox="0 0 16 16" fill="none" xmlns="http://www.w3.org/2000/svg" xmlns:xlink="http://www.w3.org/1999/xlink">
	<desc>
			Created with Pixso.
	</desc>
	<defs/>
	<path id="Combined Shape" d="M11 0L5 0C2.23901 0 0 2.23901 0 5L0 11C0 13.761 2.23901 16 5 16L11 16C13.761 16 16 13.761 16 11L16 5C16 2.23901 13.761 0 11 0ZM14.5 11C14.5 12.93 12.9301 14.5 11 14.5L5 14.5C3.06995 14.5 1.5 12.93 1.5 11L1.5 5C1.5 3.07001 3.06995 1.5 5 1.5L11 1.5C12.9301 1.5 14.5 3.07001 14.5 5L14.5 11ZM13.3334 3.66666C13.3334 4.21896 12.8856 4.66666 12.3334 4.66666C11.781 4.66666 11.3334 4.21896 11.3334 3.66666C11.3334 3.11438 11.781 2.66666 12.3334 2.66666C12.8856 2.66666 13.3334 3.11438 13.3334 3.66666ZM4 8C4 5.79099 5.79102 4 8 4C10.209 4 12 5.79099 12 8C12 10.209 10.209 12 8 12C5.79102 12 4 10.209 4 8ZM5.5 8C5.5 9.37799 6.62195 10.5 8 10.5C9.37805 10.5 10.5 9.37799 10.5 8C10.5 6.621 9.37805 5.5 8 5.5C6.62195 5.5 5.5 6.621 5.5 8Z" clip-rule="evenodd" fill="#FFFFFF" fill-opacity="1.000000" fill-rule="evenodd"/>
</svg>
