<svg width="100.000000" height="23.000000" viewBox="0 0 100 23" fill="none" xmlns="http://www.w3.org/2000/svg" xmlns:xlink="http://www.w3.org/1999/xlink">
	<desc>
			Created with Pixso.
	</desc>
	<defs>
		<clipPath id="clip0_316">
			<rect id="Logotype" width="100.000000" height="23.000000" fill="white" fill-opacity="0"/>
		</clipPath>
	</defs>
	<rect id="Logotype" width="100.000000" height="23.000000" fill="#FFFFFF" fill-opacity="0"/>
	<g clip-path="url(#clip0_316)">
		<rect id="Rectangle Copy 21" x="61.000000" rx="3.000000" width="39.000000" height="23.000000" fill="#4A90E2" fill-opacity="1.000000"/>
		<path id="Premium" d="M2.33 6.49C1.92 6.52 1.54 6.58 1.19 6.66L1.19 16.36L2.35 16.36L2.35 12.64C2.39 12.65 2.47 12.66 2.59 12.67L2.92 12.7L3.5 12.7Q4.22 12.7 4.91 12.53C5.37 12.42 5.77 12.23 6.13 11.98C6.48 11.72 6.77 11.38 6.98 10.97C7.2 10.56 7.3 10.06 7.3 9.46Q7.3 8.55 6.95 7.96C6.73 7.57 6.44 7.26 6.07 7.04C5.71 6.82 5.3 6.66 4.85 6.58C4.41 6.49 3.98 6.45 3.55 6.45Q2.95 6.45 2.33 6.49ZM31.84 6.69C31.7 6.84 31.63 7.02 31.63 7.24C31.63 7.45 31.7 7.63 31.84 7.77C31.99 7.91 32.18 7.98 32.4 7.98Q32.61 7.98 32.77 7.9Q32.88 7.85 32.97 7.77C33.13 7.63 33.21 7.45 33.21 7.24C33.21 7.02 33.13 6.84 32.97 6.69C32.82 6.53 32.62 6.45 32.4 6.45Q32.22 6.45 32.07 6.52Q31.94 6.58 31.84 6.69ZM2.88 7.47C3.1 7.46 3.34 7.46 3.58 7.46Q4.03 7.46 4.48 7.56C4.77 7.62 5.04 7.73 5.27 7.89C5.52 8.04 5.71 8.25 5.85 8.51C6 8.76 6.07 9.08 6.07 9.46Q6.07 10.13 5.83 10.57C5.68 10.86 5.48 11.08 5.23 11.24C4.98 11.4 4.69 11.51 4.38 11.58Q4.34 11.58 4.3 11.59Q3.88 11.66 3.44 11.66L2.89 11.66C2.78 11.65 2.67 11.65 2.57 11.65C2.47 11.64 2.39 11.62 2.35 11.6L2.35 7.54C2.48 7.51 2.66 7.48 2.88 7.47ZM17.2 16.34C17.63 16.2 17.99 16.03 18.27 15.8L17.85 14.99C17.69 15.14 17.45 15.27 17.13 15.38Q16.66 15.55 16.18 15.55Q15.57 15.55 15.13 15.38C14.85 15.26 14.62 15.09 14.45 14.88C14.27 14.66 14.14 14.38 14.05 14.07C13.97 13.75 13.93 13.39 13.93 12.98L18.42 12.98C18.48 12.6 18.51 12.26 18.51 11.95Q18.51 11.07 18.27 10.54C18.11 10.18 17.9 9.89 17.65 9.7C17.4 9.5 17.12 9.37 16.8 9.31C16.48 9.23 16.16 9.2 15.85 9.2Q14.73 9.2 14 9.73Q13.76 9.9 13.56 10.13Q12.77 11.07 12.77 12.86C12.77 13.42 12.83 13.93 12.95 14.38C13.07 14.82 13.26 15.21 13.51 15.54C13.76 15.85 14.08 16.1 14.47 16.28C14.87 16.45 15.33 16.53 15.86 16.53Q16.57 16.53 17.2 16.34ZM24.37 12.4L24.37 16.36L25.49 16.36L25.49 11.69C25.6 11.2 25.79 10.83 26.05 10.57C26.31 10.31 26.68 10.18 27.14 10.18C27.42 10.18 27.65 10.22 27.81 10.3C27.99 10.38 28.13 10.5 28.22 10.67C28.32 10.82 28.39 11.03 28.42 11.28C28.45 11.52 28.47 11.81 28.47 12.15L28.47 16.36L29.59 16.36L29.59 12.16Q29.59 11.28 29.47 10.71C29.39 10.32 29.27 10.02 29.09 9.8C28.91 9.57 28.69 9.42 28.42 9.34C28.15 9.24 27.81 9.2 27.42 9.2C26.95 9.2 26.52 9.3 26.13 9.5C25.76 9.71 25.47 9.99 25.25 10.36C25.09 9.93 24.87 9.63 24.58 9.46C24.3 9.28 23.94 9.2 23.49 9.2C22.96 9.2 22.52 9.29 22.19 9.49Q22.09 9.54 22 9.6Q21.62 9.86 21.32 10.22L21.26 10.22L21.05 9.36L20.27 9.36L20.27 16.36L21.39 16.36L21.39 11.55C21.5 11.16 21.7 10.83 21.98 10.57C22.27 10.31 22.63 10.18 23.05 10.18C23.33 10.18 23.56 10.22 23.73 10.32C23.9 10.41 24.04 10.55 24.13 10.74C24.23 10.92 24.29 11.16 24.31 11.44C24.35 11.71 24.37 12.03 24.37 12.4ZM47.02 12.4L47.02 16.36L48.14 16.36L48.14 11.69C48.26 11.2 48.44 10.83 48.7 10.57C48.97 10.31 49.33 10.18 49.8 10.18C50.08 10.18 50.3 10.22 50.47 10.3C50.65 10.38 50.78 10.5 50.87 10.67C50.98 10.82 51.04 11.03 51.07 11.28C51.11 11.52 51.13 11.81 51.13 12.15L51.13 16.36L52.25 16.36L52.25 12.16Q52.25 11.28 52.12 10.71Q52.01 10.13 51.74 9.8C51.57 9.57 51.34 9.42 51.07 9.34Q50.66 9.2 50.08 9.2C49.6 9.2 49.17 9.3 48.79 9.5C48.42 9.71 48.12 9.99 47.91 10.36C47.75 9.93 47.52 9.63 47.23 9.46C46.95 9.28 46.59 9.2 46.14 9.2C45.61 9.2 45.18 9.29 44.84 9.49C44.51 9.68 44.22 9.92 43.97 10.22L43.92 10.22L43.71 9.36L42.92 9.36L42.92 16.36L44.04 16.36L44.04 11.55C44.15 11.16 44.35 10.83 44.63 10.57C44.92 10.31 45.28 10.18 45.71 10.18C45.99 10.18 46.21 10.22 46.38 10.32C46.56 10.41 46.69 10.55 46.79 10.74C46.88 10.92 46.94 11.16 46.97 11.44C47.01 11.71 47.02 12.03 47.02 12.4ZM10.91 10.3C11.16 10.3 11.43 10.35 11.71 10.44L11.94 9.36C11.61 9.27 11.3 9.22 11.03 9.22Q10.46 9.22 10.08 9.49Q9.72 9.74 9.45 10.22L9.4 10.22L9.19 9.36L8.4 9.36L8.4 16.36L9.52 16.36L9.52 11.46Q9.58 11.13 9.75 10.87Q9.84 10.74 9.96 10.64Q10 10.59 10.06 10.55Q10.39 10.3 10.91 10.3ZM32.99 9.36L31.87 9.36L31.87 16.36L32.99 16.36L32.99 9.36ZM36.38 13.35L36.38 9.36L35.26 9.36L35.26 13.59C35.26 14.17 35.31 14.65 35.4 15.03C35.51 15.41 35.65 15.71 35.84 15.93C36.03 16.15 36.27 16.31 36.55 16.39C36.84 16.48 37.17 16.53 37.55 16.53C38.11 16.53 38.57 16.41 38.93 16.17Q39.3 15.92 39.57 15.59Q39.69 15.44 39.8 15.26L39.87 15.26L40.15 16.36L40.92 16.36C40.86 16.09 40.82 15.78 40.79 15.43C40.78 15.06 40.77 14.71 40.77 14.38L40.77 9.36L39.65 9.36L39.65 14.04Q39.63 14.08 39.61 14.12Q39.51 14.39 39.35 14.63Q39.29 14.73 39.21 14.83Q39.09 14.97 38.95 15.1C38.8 15.24 38.62 15.36 38.43 15.44C38.23 15.51 38.01 15.55 37.76 15.55C37.49 15.55 37.26 15.5 37.08 15.41C36.91 15.32 36.77 15.18 36.66 15.01C36.56 14.82 36.49 14.59 36.44 14.32C36.4 14.04 36.38 13.72 36.38 13.35ZM14.62 10.54Q15.11 10.18 15.86 10.18C16.36 10.18 16.74 10.32 17.01 10.61C17.28 10.89 17.41 11.38 17.41 12.09L13.94 12.09C14.01 11.39 14.2 10.9 14.53 10.61Q14.58 10.57 14.62 10.54Z" fill="#FFFFFF" fill-opacity="1.000000" fill-rule="evenodd"/>
		<path id="CAR" d="M74.39 16.41C74.82 16.32 75.18 16.17 75.46 15.96L75.18 15.05C74.96 15.18 74.7 15.29 74.38 15.37C74.07 15.45 73.71 15.5 73.29 15.5Q72.63 15.5 72.06 15.27Q72.02 15.26 71.99 15.24C71.59 15.08 71.25 14.82 70.95 14.49Q70.51 13.98 70.26 13.23Q70.01 12.47 70.01 11.46Q70.01 10.34 70.28 9.57Q70.54 8.8 70.98 8.33C71.28 8.01 71.61 7.78 71.99 7.64C72.36 7.5 72.74 7.43 73.12 7.43Q74.37 7.43 75.04 7.75L75.32 6.73C75.07 6.63 74.76 6.55 74.41 6.49C74.05 6.43 73.6 6.4 73.04 6.4Q72.82 6.4 72.6 6.42Q72.04 6.47 71.5 6.68Q71.43 6.7 71.36 6.73Q70.68 7.01 70.12 7.57Q69.52 8.17 69.14 9.14Q68.78 10.09 68.78 11.46Q68.78 12.78 69.12 13.75Q69.45 14.7 70.03 15.31C70.41 15.72 70.86 16.03 71.37 16.24C71.88 16.43 72.43 16.53 73.02 16.53Q73.75 16.53 74.39 16.41ZM76.86 16.36L77.84 13.65L81.45 13.65L82.46 16.36L83.67 16.36L79.95 6.41L79.42 6.41L75.71 16.36L76.86 16.36ZM86.19 6.51Q85.51 6.56 84.98 6.66L84.98 16.36L86.14 16.36L86.14 11.93L87.51 12.14L90.21 16.36L91.57 16.36L89.13 12.49L88.46 11.97C89.11 11.81 89.64 11.49 90.06 11.02C90.48 10.54 90.69 9.92 90.69 9.15Q90.69 8.41 90.42 7.89C90.24 7.55 90.01 7.27 89.71 7.05C89.42 6.84 89.08 6.68 88.69 6.59C88.3 6.5 87.9 6.45 87.47 6.45C87.09 6.45 86.66 6.47 86.19 6.51ZM87.12 7.46L87.5 7.46C88.11 7.46 88.59 7.62 88.94 7.95Q89.15 8.15 89.27 8.39Q89.46 8.75 89.46 9.2C89.46 9.87 89.25 10.36 88.83 10.68C88.41 11 87.87 11.16 87.23 11.16L86.14 11.16L86.14 7.54Q86.24 7.52 86.39 7.5C86.5 7.49 86.62 7.48 86.74 7.47C86.86 7.46 86.99 7.46 87.12 7.46ZM81.1 12.64L78.21 12.64L79.29 9.68L79.64 8.17L79.66 8.17L80.01 9.66L81.1 12.64Z" fill="#FFFFFF" fill-opacity="1.000000" fill-rule="evenodd"/>
	</g>
</svg>
